HIERARCHY
ROOT Hips
{
  OFFSET 0.000000 0.000000 0.000000
  CHANNELS 6 Xposition Yposition Zposition Zrotation Yrotation Xrotation
  JOINT Spine
  {
    OFFSET -0.000883 2.120903 -0.028059
    CHANNELS 3 Zrotation Yrotation Xrotation
    JOINT Spine1
    {
      OFFSET -0.002865 2.096658 0.129739
      CHANNELS 3 Zrotation Yrotation Xrotation
      JOINT Spine2
      {
        OFFSET -0.000072 2.101496 0.140380
        CHANNELS 3 Zrotation Yrotation Xrotation
        JOINT Neck
        {
          OFFSET 0.073278 1.835262 0.072900
          CHANNELS 3 Zrotation Yrotation Xrotation
          JOINT Head
          {
            OFFSET -0.033980 1.851628 -0.175733
            CHANNELS 3 Zrotation Yrotation Xrotation
            End Site
            {
              OFFSET 0 0 0
            }
          }
        }
        JOINT LeftShoulder
        {
          OFFSET 3.021134 1.180177 0.406022
          CHANNELS 3 Zrotation Yrotation Xrotation
          JOINT LeftArm
          {
            OFFSET 4.585380 -0.000000 -0.000000
            CHANNELS 3 Zrotation Yrotation Xrotation
            JOINT LeftForeArm
            {
              OFFSET 2.689350 -0.000000 -0.000000
              CHANNELS 3 Zrotation Yrotation Xrotation
              JOINT LeftHand
              {
                OFFSET 0.585058 -0.000000 -0.000000
                CHANNELS 3 Zrotation Yrotation Xrotation
                JOINT LeftHandIndex1
                {
                  OFFSET 0.471689 -0.000000 -0.000000
                  CHANNELS 3 Zrotation Yrotation Xrotation
                  End Site
                  {
                    OFFSET 0 0 0
                  }
                }
              }
            }
          }
        }
        JOINT RightShoulder
        {
          OFFSET -2.950738 1.188427 0.314298
          CHANNELS 3 Zrotation Yrotation Xrotation
          JOINT RightArm
          {
            OFFSET -4.474500 -0.000000 -0.000000
            CHANNELS 3 Zrotation Yrotation Xrotation
            JOINT RightForeArm
            {
              OFFSET -2.938960 -0.000000 -0.000000
              CHANNELS 3 Zrotation Yrotation Xrotation
              JOINT RightHand
              {
                OFFSET -0.405092 -0.000000 -0.000000
                CHANNELS 3 Zrotation Yrotation Xrotation
                JOINT RightHandIndex1
                {
                  OFFSET -0.326596 -0.000000 -0.000000
                  CHANNELS 3 Zrotation Yrotation Xrotation
                  End Site
                  {
                    OFFSET 0 0 0
                  }
                }
              }
            }
          }
        }
      }
    }
  }
  JOINT LeftUpLeg
  {
    OFFSET 2.251771 -6.186694 0.000000
    CHANNELS 3 Zrotation Yrotation Xrotation
    JOINT LeftLeg
    {
      OFFSET 2.266012 -6.225823 0.000000
      CHANNELS 3 Zrotation Yrotation Xrotation
      JOINT LeftFoot
      {
        OFFSET 0.237014 -0.651191 2.158476
        CHANNELS 3 Zrotation Yrotation Xrotation
        JOINT LeftToeBase
        {
          OFFSET 0.000000 -0.000000 1.129490
          CHANNELS 3 Zrotation Yrotation Xrotation
          End Site
          {
            OFFSET 0 0 0
          }
        }
      }
    }
  }
  JOINT RightUpLeg
  {
    OFFSET -2.280357 -6.265234 0.000000
    CHANNELS 3 Zrotation Yrotation Xrotation
    JOINT RightLeg
    {
      OFFSET -2.254897 -6.195283 0.000000
      CHANNELS 3 Zrotation Yrotation Xrotation
      JOINT RightFoot
      {
        OFFSET -0.283752 -0.779600 2.231370
        CHANNELS 3 Zrotation Yrotation Xrotation
        JOINT RightToeBase
        {
          OFFSET -0.000000 -0.000000 1.178990
          CHANNELS 3 Zrotation Yrotation Xrotation
          End Site
          {
            OFFSET 0 0 0
          }
        }
      }
    }
  }
}
MOTION
Frames: 10
Frame Time: 0.00833333
-2.319030 15.565000 7.351340 0.243532 -4.389300 12.135800 -16.071800 -3.000730 -11.036600 0.000000 0.000000 28.298300 18.472300 0.000000 -21.525200 0.000000 0.000000 -12.181900 19.696300 2.735880 -18.309600 0.000000 0.000000 32.780200 -17.784300 0.000000 -24.718200 0.000000 0.000000 1.198630 2.531860 -0.724945 -4.393910 0.281739 -1.005980 -6.571460 -1.129340 -0.617401 -4.369220 11.781200 5.818270 -7.882460 -3.545480 4.291470 13.168000 -0.000000 0.000000 0.000000 68.678800 -4.088730 -41.701500 0.000000 0.000000 79.828000 34.826200 0.000000 -12.241400 0.000000 0.000000 7.125020 -0.000000 0.000000 0.000000 -77.433700 5.104410 -28.613300 0.000000 0.000000 54.877600 -21.189000 0.000000 -13.548900 0.000000 0.000000 7.125020
-2.330440 15.563900 7.373190 0.103079 -4.527330 11.959900 -15.827600 -2.129620 -11.984900 0.000000 0.000000 30.644600 17.656700 0.000000 -21.325500 0.000000 0.000000 -13.716100 19.881600 2.689890 -17.870200 0.000000 0.000000 32.460500 -17.556700 0.000000 -24.630100 0.000000 0.000000 1.108870 2.805380 -0.743130 -4.321400 0.259689 -1.033120 -6.535280 -1.304350 -0.643942 -4.380240 11.790200 5.866970 -7.663760 -3.559000 4.346180 13.218900 -0.000000 0.000000 0.000000 68.616600 -5.069120 -40.491000 0.000000 0.000000 82.068100 35.079800 0.000000 -12.400200 0.000000 0.000000 7.125020 -0.000000 0.000000 0.000000 -77.997400 6.238350 -27.582800 0.000000 0.000000 57.088800 -21.154600 0.000000 -13.877400 0.000000 0.000000 7.125020
-2.341030 15.563200 7.394970 -0.043341 -4.632120 11.772000 -15.551300 -1.342290 -13.018300 0.000000 0.000000 33.132600 16.826000 0.000000 -20.980400 0.000000 0.000000 -15.038500 20.077800 2.635880 -17.398900 0.000000 0.000000 32.113800 -17.362400 0.000000 -24.530400 0.000000 0.000000 1.031000 3.086360 -0.764897 -4.217410 0.242261 -1.063520 -6.491230 -1.478290 -0.672276 -4.401450 11.795200 5.909930 -7.457580 -3.573620 4.395770 13.265200 -0.000000 -0.000000 0.000000 68.556000 -6.091570 -39.197100 0.000000 0.000000 84.264600 35.407700 0.000000 -12.485400 0.000000 0.000000 7.125020 -0.000000 -0.000000 0.000000 -78.509600 7.372220 -26.556000 0.000000 0.000000 59.363800 -21.150900 0.000000 -14.162200 0.000000 0.000000 7.125020
-2.350770 15.562800 7.416860 -0.197894 -4.726830 11.588500 -15.245500 -0.623004 -14.138200 0.000000 0.000000 35.724600 15.997100 0.000000 -20.471500 0.000000 0.000000 -16.085800 20.281700 2.576730 -16.919600 0.000000 0.000000 31.747700 -17.187200 0.000000 -24.419000 0.000000 0.000000 0.942770 3.367700 -0.783298 -4.095300 0.232723 -1.087880 -6.446560 -1.643910 -0.697457 -4.432260 11.791500 5.947130 -7.262240 -3.586700 4.440240 13.308300 0.000000 0.000000 0.000000 68.493200 -7.152030 -37.827100 0.000000 0.000000 86.419500 35.773900 0.000000 -12.510400 0.000000 0.000000 7.125020 0.000000 0.000000 0.000000 -78.964000 8.511520 -25.537500 0.000000 0.000000 61.700100 -21.184500 0.000000 -14.386300 0.000000 0.000000 7.125020
-2.359130 15.561900 7.439250 -0.362052 -4.803930 11.403400 -14.910200 0.021761 -15.326500 0.000000 0.000000 38.376300 15.183300 0.000000 -19.775000 0.000000 0.000000 -16.774100 20.494000 2.499210 -16.427800 0.000000 0.000000 31.369200 -17.031200 0.000000 -24.300700 0.000000 0.000000 0.809075 3.654140 -0.802333 -3.957750 0.232761 -1.111640 -6.391440 -1.802260 -0.722084 -4.461130 11.777500 5.980720 -7.096680 -3.597720 4.479440 13.352200 0.000000 -0.000000 0.000000 68.421400 -8.239940 -36.371200 0.000000 0.000000 88.526400 36.156400 0.000000 -12.499400 0.000000 0.000000 7.125020 0.000000 -0.000000 0.000000 -79.355100 9.655090 -24.503700 0.000000 0.000000 64.080000 -21.233200 0.000000 -14.592300 0.000000 0.000000 7.125020
-2.366110 15.560100 7.462360 -0.548643 -4.873110 11.223200 -14.533600 0.605843 -16.569000 0.000000 0.000000 41.038200 14.380100 0.000000 -18.899500 0.000000 0.000000 -17.071600 20.726000 2.410560 -15.932500 0.000000 0.000000 30.982900 -16.887400 0.000000 -24.177300 0.000000 0.000000 0.626287 3.953540 -0.819280 -3.806330 0.246204 -1.130880 -6.334640 -1.953690 -0.744702 -4.496310 11.757700 6.010470 -6.938130 -3.607490 4.514860 13.390500 -0.000000 0.000000 0.000000 68.334900 -9.351830 -34.850700 0.000000 0.000000 90.592000 36.524900 0.000000 -12.483900 0.000000 0.000000 7.125020 -0.000000 0.000000 0.000000 -79.682200 10.806700 -23.466400 0.000000 0.000000 66.495500 -21.268700 0.000000 -14.776700 0.000000 0.000000 7.125020
-2.371890 15.557200 7.486310 -0.764565 -4.951160 11.060500 -14.113500 1.154140 -17.856700 0.000000 0.000000 43.658100 13.571900 0.000000 -17.883700 0.000000 0.000000 -17.001900 20.982200 2.330190 -15.451500 0.000000 0.000000 30.592300 -16.756100 0.000000 -24.044700 0.000000 0.000000 0.390250 4.261300 -0.833956 -3.651730 0.280406 -1.145380 -6.278990 -2.088130 -0.764819 -4.534360 11.734200 6.038540 -6.796300 -3.619140 4.547540 13.427600 -0.000000 0.000000 0.000000 68.231900 -10.481700 -33.277300 0.000000 0.000000 92.613400 36.838600 0.000000 -12.496200 0.000000 0.000000 7.125020 -0.000000 0.000000 0.000000 -79.947100 11.980300 -22.411800 0.000000 0.000000 68.926000 -21.211100 0.000000 -14.974900 0.000000 0.000000 7.125020
-2.376010 15.553200 7.511730 -1.007480 -5.026190 10.903400 -13.657000 1.662630 -19.154200 0.000000 0.000000 46.180500 12.761600 0.000000 -16.796400 0.000000 0.000000 -16.679100 21.259900 2.253460 -14.966700 0.000000 0.000000 30.198500 -16.635000 0.000000 -23.912900 0.000000 0.000000 0.129473 4.582450 -0.849457 -3.490200 0.331344 -1.159210 -6.220620 -2.212520 -0.784711 -4.573810 11.711400 6.065910 -6.657200 -3.631710 4.579040 13.458900 -0.000000 0.000000 0.000000 68.111600 -11.633500 -31.659500 0.000000 0.000000 94.600400 37.030600 0.000000 -12.590300 0.000000 0.000000 7.125020 -0.000000 0.000000 0.000000 -80.148200 13.155200 -21.337200 0.000000 0.000000 71.350500 -21.008100 0.000000 -15.140200 0.000000 0.000000 7.125020
-2.378450 15.548200 7.538970 -1.263350 -5.103400 10.755300 -13.185700 2.141430 -20.439900 0.000000 0.000000 48.547800 11.908300 0.000000 -15.757400 0.000000 0.000000 -16.199400 21.542000 2.191170 -14.483200 0.000000 0.000000 29.802700 -16.523600 0.000000 -23.783900 0.000000 0.000000 -0.125198 4.905700 -0.863460 -3.326890 0.391717 -1.169470 -6.165930 -2.328120 -0.802810 -4.618130 11.694400 6.089160 -6.511150 -3.646720 4.608190 13.483700 0.000000 0.000000 0.000000 67.969300 -12.807200 -30.011400 0.000000 0.000000 96.554900 37.225100 0.000000 -12.693600 0.000000 0.000000 7.125020 0.000000 0.000000 0.000000 -80.288600 14.314100 -20.254600 0.000000 0.000000 73.766800 -20.695200 0.000000 -15.220800 0.000000 0.000000 7.125020
-2.379140 15.543000 7.568500 -1.521910 -5.189850 10.619500 -12.716100 2.596360 -21.695300 0.000000 0.000000 50.701400 11.015800 0.000000 -14.874200 0.000000 0.000000 -15.697000 21.816100 2.154600 -14.003100 0.000000 0.000000 29.404900 -16.424800 0.000000 -23.658200 0.000000 0.000000 -0.362468 5.219030 -0.875911 -3.170080 0.459565 -1.176590 -6.114800 -2.430400 -0.818762 -4.662100 11.683200 6.113340 -6.357200 -3.662320 4.638400 13.503700 -0.000000 0.000000 0.000000 67.804200 -14.001700 -28.333100 0.000000 0.000000 98.462400 37.362800 0.000000 -12.826700 0.000000 0.000000 7.125020 -0.000000 0.000000 0.000000 -80.371600 15.451200 -19.158700 0.000000 0.000000 76.169500 -20.305000 0.000000 -15.210200 0.000000 0.000000 7.125020
